<?xml version="1.0" encoding="utf-8"?>
<!-- Generator: Adobe Illustrator 25.4.0, SVG Export Plug-In . SVG Version: 6.00 Build 0)  -->
<svg version="1.1" xmlns="http://www.w3.org/2000/svg" xmlns:xlink="http://www.w3.org/1999/xlink" x="0px" y="0px"
	 viewBox="0 0 800 800" style="enable-background:new 0 0 800 800;" xml:space="preserve">
<style type="text/css">
	.st0{fill:#FFFFFF;stroke:#000000;stroke-width:14;stroke-miterlimit:10;}
	.st1{fill:#FFFFFF;stroke:#000000;stroke-width:8;stroke-miterlimit:10;}
	.st2{display:none;stroke:#000000;stroke-width:16;stroke-linecap:round;stroke-linejoin:round;stroke-miterlimit:10;}
	.st3{stroke:#000000;stroke-width:12;stroke-linecap:round;stroke-linejoin:round;stroke-miterlimit:10;}
	.st4{stroke:#000000;stroke-width:15;stroke-linecap:round;stroke-linejoin:round;stroke-miterlimit:10;}
	.st5{display:none;stroke:#000000;stroke-width:8;stroke-miterlimit:10;}
	.st6{stroke:#000000;stroke-width:8;stroke-miterlimit:10;}
	.st7{fill:#FFFFFF;stroke:#FFFFFF;stroke-width:10;stroke-miterlimit:10;}
	.st8{fill:none;stroke:#000000;stroke-width:8;stroke-miterlimit:10;}
	.st9{stroke:#000000;stroke-width:0.25;stroke-miterlimit:10;}
</style>
<g id="Layer_1">
	<circle class="st0" cx="400" cy="400" r="299.6"/>
	<path class="st1" d="M135.1,352.7C157.5,226.7,267.5,131,400,131s242.5,95.7,264.9,221.8"/>
	<path class="st1" d="M665.6,443C645,571.2,533.9,669,400,669c-132.8,0-243.1-96.2-265-222.7"/>
	<path class="st1" d="M216.4,352.7c21-81.8,95.3-142.3,183.6-142.3s162.6,60.5,183.6,142.3"/>
	<path class="st1" d="M583.9,446.4c-20.7,82.3-95.2,143.2-183.9,143.2s-163.2-60.9-183.9-143.2"/>
</g>
<g id="Layer_5">
	<polygon class="st2" points="500.7,502.5 399.9,413.2 297.5,500.7 386.8,399.9 299.3,297.5 400.1,386.8 502.5,299.3 413.2,400.1 	
		"/>
	<polygon class="st3" points="293.9,290.7 400.6,389.6 507.6,290.4 408.5,397.4 507.3,504.1 400.6,405.2 293.6,504.4 392.8,397.4 	
		"/>
	<polyline class="st4" points="408.6,398.4 507.5,505.1 400.8,406.2 293.8,505.4 393,398.4 	"/>
	<circle class="st5" cx="299.6" cy="297.5" r="13.4"/>
	<circle class="st5" cx="502.7" cy="299.3" r="13.4"/>
	<path class="st6" d="M302.4,290.8c2.7,2.7,3.1,6.8,0.8,9s-6.3,1.9-9-0.8s-6-9.7-3.7-11.9S299.7,288.1,302.4,290.8z"/>
	<path class="st6" d="M507.2,299.1c-2.7,2.7-6.8,3.1-9,0.8s-1.9-6.3,0.8-9s9.7-6,11.9-3.7C513.1,289.4,509.9,296.4,507.2,299.1z"/>
	<rect x="321.8" y="357.2" class="st7" width="156.6" height="80.3"/>
</g>
<g id="Layer_2">
	<line class="st8" x1="400" y1="589.6" x2="400" y2="669"/>
	<line class="st8" x1="400" y1="131" x2="400" y2="210.4"/>
	<line class="st8" x1="458.5" y1="580.4" x2="483" y2="656"/>
	<line class="st8" x1="316.8" y1="144.3" x2="341.3" y2="219.7"/>
	<line class="st8" x1="511.3" y1="553.5" x2="558" y2="617.8"/>
	<line class="st8" x1="241.8" y1="182.5" x2="288.4" y2="246.7"/>
	<line class="st8" x1="553.3" y1="511.6" x2="617.6" y2="558.3"/>
	<line class="st8" x1="182.3" y1="242" x2="246.5" y2="288.7"/>
	<line class="st8" x1="580.3" y1="458.8" x2="655.8" y2="483.3"/>
	<path class="st8" d="M580.3,458.8"/>
	<line class="st8" x1="144" y1="317" x2="219.6" y2="341.6"/>
	<line class="st8" x1="580.4" y1="341.5" x2="655.8" y2="317"/>
	<line class="st8" x1="144" y1="483.3" x2="219.7" y2="458.7"/>
	<line class="st8" x1="553.4" y1="288.6" x2="617.6" y2="242"/>
	<line class="st8" x1="182.3" y1="558.3" x2="246.7" y2="511.5"/>
	<line class="st8" x1="511.5" y1="246.6" x2="558" y2="182.5"/>
	<line class="st8" x1="241.8" y1="617.8" x2="288.6" y2="553.4"/>
	<line class="st8" x1="458.6" y1="219.6" x2="483" y2="144.3"/>
	<line class="st8" x1="316.8" y1="656" x2="341.4" y2="580.3"/>
</g>
<g id="Layer_4">
	<line class="st8" x1="643.8" y1="399.5" x2="699.6" y2="399.5"/>
	<line class="st8" x1="100.4" y1="400" x2="159.8" y2="399.5"/>
	<line class="st8" x1="643.8" y1="376.1" x2="699.6" y2="376.1"/>
	<line class="st8" x1="102.7" y1="376.1" x2="159.8" y2="376.1"/>
	<polyline class="st8" points="102.5,352.7 135.1,352.7 216.4,352.7 447.3,352.7 583.6,352.7 574.4,352.7 696.4,352.7 	"/>
	<polyline class="st8" points="104,446.4 135,446.4 216.4,446.4 696,446.4 	"/>
	<line class="st8" x1="643.8" y1="423" x2="699" y2="423"/>
	<line class="st8" x1="102.7" y1="423" x2="159.8" y2="423"/>
</g>
<g id="Layer_3">
	<g>
		<path class="st9" d="M186.5,531.7l-5.4-10.6l10.9-13.9l-2.6-5l-7.3,3.7l2.3,4.5l-7,3.5l-9.1-18l7-3.5l2.3,4.6l23.5-12l-2.3-4.6
			l7-3.5l12.8,25.2c2.6,5,1.4,8.6-3.6,11.1l-7.5,3.8c-4.3,2.2-7.5,1.7-9.9-1.7l-6.4,8.1l2.3,4.6L186.5,531.7z M201.3,507.8
			c0.4,0.8,0.7,0.9,1.5,0.5l6.5-3.3c0.8-0.4,0.9-0.7,0.5-1.5l-4.7-9.3l-8.6,4.4L201.3,507.8z"/>
		<path class="st9" d="M216.4,569.8c-3.9-4-3.9-7.8,0.1-11.7l18.1-17.9c4-4,7.8-3.9,11.7,0.1l11.7,11.8c4,4,4,7.7-0.1,11.7
			l-18.1,17.9c-4,3.9-7.7,4-11.7-0.1L216.4,569.8z M224.5,564.2c-0.6,0.6-0.6,1,0,1.6l7.7,7.8c0.6,0.6,1,0.6,1.6,0l15.9-15.8
			c0.6-0.6,0.6-1,0-1.6l-7.7-7.8c-0.6-0.6-1-0.6-1.6,0L224.5,564.2z"/>
		<path class="st9" d="M315.8,599.4L304,622.4c-2.5,4.9-6.2,6.1-11.2,3.6l-13.8-7.1c-4.9-2.5-6.1-6.3-3.6-11.1l11.8-23.1l-4.5-2.3
			l3.6-6.9l17.3,8.9l-3.6,6.9l-3.9-2l-11.1,21.6c-0.4,0.7-0.2,1.2,0.5,1.5l8.8,4.5c0.7,0.4,1.2,0.2,1.5-0.5l11.1-21.6l-3.9-2
			l3.6-6.9l17.3,8.9l-3.6,6.9L315.8,599.4z"/>
		<path class="st9" d="M343.9,644.2l1.2-7.7l5.1,0.8l4.1-26.1l-5.1-0.8l1.2-7.7l20.6,3.3l-1.2,7.7l-5.7-0.9l-4.1,25.6l10.4,1.6
			l1.3-8.2l8.3,1.3l-2.6,16.4L343.9,644.2z"/>
		<path class="st9" d="M449.1,616.4l-8.2,1.2l-0.7-5l-10.9,1.6l1.2,8.2l14.1-2.1l1.2,8.2l-14.1,2.1l1.3,8.8l10.9-1.6l-0.7-5l8.2-1.2
			l2,13.1l-34,5.1l-1.1-7.7l5.1-0.8l-3.9-26.1l-5.1,0.8l-1.1-7.7l34-5.1L449.1,616.4z"/>
		<path class="st9" d="M506.4,588.3l-5,2.5l11.7,23.4l5.3-2.7l3.5,7l-19.5,9.8l-3.5-7l5.3-2.7l-11.7-23.4l-5,2.5l3.3,6.5l-7.4,3.7
			l-6.9-13.7l33.8-16.9l6.9,13.7l-7.4,3.7L506.4,588.3z"/>
		<path class="st9" d="M559.4,546.2l-4,4l18.4,18.6l4.2-4.2l5.5,5.5L568,585.5l-5.5-5.5l4.2-4.2l-18.4-18.6l-4,4l5.1,5.2l-5.9,5.8
			l-10.8-10.9l26.9-26.6l10.8,10.9l-5.9,5.8L559.4,546.2z"/>
		<path class="st9" d="M603.8,488l-3.9,7.3l-4.5-2.3l-5.1,9.7l7.3,3.9l6.6-12.6l7.4,3.9l-6.6,12.6l7.9,4.2l5.1-9.7l-4.5-2.3l3.9-7.3
			l11.7,6.2l-16,30.4l-6.9-3.6l2.4-4.6l-23.4-12.3l-2.4,4.6l-6.9-3.6l16-30.4L603.8,488z"/>
	</g>
	<g>
		<path d="M189.8,381.8h-7v-9.4h36.6c7.6,0,11.2,3.6,11.2,15c0,7-1.4,10.2-5,12.4c4,1.9,5.7,5,5.7,13c0,12-3.6,15.6-11.2,15.6h-37.3
			v-9.4h7V381.8z M216.7,394.5c2,0,2.4-0.5,2.4-6s-0.4-5.9-2.4-5.9h-15.4v11.9H216.7z M217.3,418.1c2,0,2.4-0.4,2.4-7
			c0-6.6-0.4-6.9-2.4-6.9h-16v13.8H217.3z"/>
		<path d="M263.2,381.8v37.1h7.4v9.4h-26.2v-9.4h7.4v-37.1h-7.4v-9.4h26.2v9.4H263.2z"/>
		<path d="M315.5,384.5c0-1.2-0.4-1.6-1.6-1.6H298c-1.2,0-1.6,0.4-1.6,1.6v31.7c0,1.2,0.4,1.6,1.6,1.6h15.9c1.2,0,1.6-0.4,1.6-1.6
			v-9.1h-11V397H327v20.2c0,7.6-3.6,11.2-11.2,11.2H296c-7.6,0-11.2-3.6-11.2-11.2v-33.6c0-7.6,3.6-11.2,11.2-11.2h19.8
			c7.6,0,11.2,3.6,11.2,11.2v7.4h-11.5V384.5z"/>
		<path d="M376.4,381.8h-7v-9.4H406c7.6,0,11.2,3.6,11.2,15c0,7-1.4,10.2-5,12.4c4,1.9,5.7,5,5.7,13c0,12-3.6,15.6-11.2,15.6h-37.3
			v-9.4h7V381.8z M403.3,394.5c2,0,2.4-0.5,2.4-6s-0.4-5.9-2.4-5.9H388v11.9H403.3z M404,418.1c2,0,2.4-0.4,2.4-7
			c0-6.6-0.4-6.9-2.4-6.9h-16v13.8H404z"/>
		<path d="M488.4,418.9v9.4h-24.2v-9.4h5.9l-2.3-7.4h-18.7l-2.3,7.4h5.8v9.4h-23.7v-9.4h6.1l12.7-37.1h-6.4v-9.4h25.1l15.9,46.6
			H488.4z M464.8,402l-6.3-19.7l-6.3,19.7H464.8z"/>
		<path d="M557.2,381.8h-6.7v46.6h-11.9l-21-38.5v29h7.7v9.4h-25.8v-9.4h7v-37.1h-7v-9.4h19.7l20.3,37.2v-27.8h-7.7v-9.4h25.4V381.8
			z"/>
		<path d="M569.2,418.9h7v-37.1h-7v-9.4h37.7c7.6,0,11.2,3.6,11.2,11.2v33.6c0,7.6-3.6,11.2-11.2,11.2h-37.7V418.9z M605,417.8
			c1.2,0,1.6-0.4,1.6-1.6v-31.7c0-1.2-0.4-1.6-1.6-1.6h-17.2v34.9H605z"/>
	</g>
</g>
</svg>
