<?xml version="1.0" encoding="UTF-8" standalone="no"?>
<!-- Generator: Adobe Illustrator 25.4.0, SVG Export Plug-In . SVG Version: 6.00 Build 0)  -->

<svg
   version="1.1"
   id="Layer_1"
   x="0px"
   y="0px"
   viewBox="0 0 800 800"
   style="enable-background:new 0 0 800 800;"
   xml:space="preserve"
   height="100%"
   width="100%"
   sodipodi:docname="logo_colour_snapped.svg"
   inkscape:version="1.1.1 (3bf5ae0d25, 2021-09-20)"
   xmlns:inkscape="http://www.inkscape.org/namespaces/inkscape"
   xmlns:sodipodi="http://sodipodi.sourceforge.net/DTD/sodipodi-0.dtd"
   xmlns="http://www.w3.org/2000/svg"
   xmlns:svg="http://www.w3.org/2000/svg"><defs
   id="defs1923" /><sodipodi:namedview
   id="namedview1921"
   pagecolor="#ffffff"
   bordercolor="#666666"
   borderopacity="1.0"
   inkscape:pageshadow="2"
   inkscape:pageopacity="0.0"
   inkscape:pagecheckerboard="0"
   showgrid="false"
   inkscape:zoom="0.9075"
   inkscape:cx="399.44904"
   inkscape:cy="400"
   inkscape:window-width="1920"
   inkscape:window-height="1018"
   inkscape:window-x="-6"
   inkscape:window-y="-6"
   inkscape:window-maximized="1"
   inkscape:current-layer="Layer_1" />
<style type="text/css" id="style1725">
	.st0{fill:#C54E37;}
	.st1{fill:#1E4F4D;}
	.st2{fill:#FFFFFF;}
	.st3{fill:#7DAD96;}
	.st4{fill:none;stroke:#0D2322;stroke-width:14;stroke-miterlimit:10;}
	.st5{fill:none;stroke:#0D2322;stroke-width:8;stroke-miterlimit:10;}
	.st6{display:none;stroke:#000000;stroke-width:16;stroke-linecap:round;stroke-linejoin:round;stroke-miterlimit:10;}
	.st7{fill:#0D2322;stroke:#0D2322;stroke-width:12;stroke-linecap:round;stroke-linejoin:round;stroke-miterlimit:10;}
	.st8{fill:#0D2322;stroke:#0D2322;stroke-width:15;stroke-linecap:round;stroke-linejoin:round;stroke-miterlimit:10;}
	.st9{display:none;stroke:#000000;stroke-width:8;stroke-miterlimit:10;}
	.st10{fill:#0D2322;stroke:#0D2322;stroke-width:8;stroke-miterlimit:10;}
	.st11{fill:#FFFFFF;stroke:#FFFFFF;stroke-width:10;stroke-miterlimit:10;}
	.st12{fill:none;stroke:#000000;stroke-width:8;stroke-miterlimit:10;}
	.st13{fill:none;}
	.st14{fill:#0D2322;}
</style>
<g
   id="Layer_1_00000172422240771182811290000007060776520322440100_">
	<g
   id="Layer_2_00000146483090775368321710000000763613454003945892_">
		<g
   id="XMLID_00000112604211604037815570000006135604951893965735_">
			<g
   id="g1773">
				<path
   class="st0"
   d="M216.1,445.9l449.5-2.8c-2.2,13.8-5.5,27.3-9.7,40.3h-0.1l-75.5-24.5l0,0c1.3-4.1,2.5-8.2,3.6-12.4H216.1      V445.9z"
   id="path1727" />
				<path
   class="st0"
   d="M664.9,352.7h-81.2c-1-3.8-2.1-7.5-3.2-11.2l75.4-24.5l0.2-0.1C659.7,328.6,662.7,340.5,664.9,352.7z"
   id="path1729" />
				<path
   class="st1"
   d="M656,317l-0.2,0.1l-75.4,24.5c-6.2-19.1-15.4-37-27-52.9l64.1-46.6l0.2-0.1      C634.2,264.5,647.2,289.8,656,317z"
   id="path1731" />
				<path
   class="st1"
   d="M655.8,483.3L655.8,483.3c-8.7,27.1-21.8,52.4-38.2,74.9l-64.3-46.7l0,0c11.6-15.9,20.8-33.7,27-52.8l0,0      L655.8,483.3z"
   id="path1733" />
				<path
   class="st0"
   d="M617.7,241.9l-0.2,0.1l-64.1,46.6c-11.7-16.1-25.9-30.3-42-42l46.6-64.1l0.1-0.2      C581,199,601.1,219.1,617.7,241.9z"
   id="path1735" />
				<path
   class="st0"
   d="M553.3,511.6l64.3,46.7c-16.6,22.8-36.7,42.9-59.6,59.5l-46.7-64.3C527.4,541.8,541.6,527.7,553.3,511.6      L553.3,511.6z"
   id="path1737" />
				<path
   class="st2"
   d="M241.9,617.7c22.6,16.4,47.8,29.4,74.9,38.2C343,664.4,371,669,400,669s56.9-4.6,83-13.1      c27.1-8.8,52.4-21.8,75-38.2c22.8-16.6,42.9-36.7,59.6-59.5c16.5-22.6,29.5-47.8,38.3-74.9c4.2-13,7.5-26.5,9.7-40.3l-449.5,2.8      l-81.2,0.5c2.2,12.6,5.3,24.9,9.2,36.9c8.8,27.1,21.8,52.4,38.3,74.9C199,581,219.1,601.1,241.9,617.7z M400,100.4      c165.4,0,299.6,134.1,299.6,299.6S565.4,699.6,400,699.6S100.4,565.4,100.4,400S234.6,100.4,400,100.4z M583.7,352.7h81.2      c-2.2-12.2-5.2-24.2-8.9-35.8c-8.8-27.2-21.8-52.4-38.3-75c-16.6-22.8-36.7-43-59.6-59.6c-22.6-16.5-47.9-29.5-75-38.3      c-26.1-8.4-54.1-13-83.1-13c-29.1,0-57.1,4.6-83.3,13.1c-27.1,8.8-52.4,21.9-75,38.3l0,0c-22.8,16.6-42.9,36.7-59.5,59.6      c-16.4,22.6-29.4,47.9-38.2,75c-3.8,11.6-6.7,23.5-8.9,35.7h81.2H583.7z"
   id="path1739" />
				<path
   class="st2"
   d="M511.3,553.5c-15.9,11.6-33.7,20.7-52.8,26.9c-18.4,6-38.1,9.2-58.5,9.2c-20.5,0-40.2-3.2-58.6-9.2      c-19.1-6.2-36.9-15.4-52.8-26.9c-16.1-11.7-30.2-25.8-41.9-41.9c-11.6-15.9-20.8-33.7-27-52.8c-1.3-4-2.5-8.1-3.6-12.3h367.7      c-1,4.2-2.2,8.3-3.6,12.4c-6.2,19.1-15.4,36.9-27,52.8C541.6,527.7,527.4,541.8,511.3,553.5z"
   id="path1741" />
				<path
   class="st2"
   d="M219.6,341.6c6.2-19.1,15.3-36.9,26.9-52.9c11.7-16.1,25.8-30.3,41.9-42c15.9-11.6,33.7-20.8,52.9-27      c18.5-6,38.2-9.3,58.7-9.3c20.4,0,40.1,3.2,58.6,9.2c19.1,6.2,37,15.4,52.9,27c16.1,11.7,30.3,25.9,42,42      c11.6,15.9,20.8,33.8,27,52.9c1.2,3.7,2.3,7.4,3.2,11.2H216.4C217.3,349,218.4,345.2,219.6,341.6z"
   id="path1743" />
				<path
   class="st1"
   d="M558.2,182.4l-0.1,0.2l-46.6,64.1c-15.9-11.6-33.8-20.8-52.9-27l24.5-75.3l0.1-0.2      C510.3,152.9,535.5,165.9,558.2,182.4z"
   id="path1745" />
				<path
   class="st1"
   d="M511.3,553.5l46.7,64.3c-22.6,16.4-47.8,29.4-75,38.2l-24.6-75.6C477.6,574.2,495.4,565.1,511.3,553.5z"
   id="path1747" />
				<path
   class="st0"
   d="M483.1,144.1l-0.1,0.2l-24.5,75.3c-18.4-6-38.1-9.2-58.6-9.2V131C429,131,457,135.6,483.1,144.1z"
   id="path1749" />
				<path
   class="st0"
   d="M458.5,580.4L483,656c-26.1,8.5-54,13.1-83,13.1v-79.4C420.4,589.6,440,586.4,458.5,580.4z"
   id="path1751" />
				<path
   class="st1"
   d="M400,589.6V669c-29,0-57-4.6-83.2-13.1l24.5-75.6C359.8,586.3,379.5,589.6,400,589.6z"
   id="path1753" />
				<path
   class="st1"
   d="M400,131v79.4c-20.5,0-40.2,3.3-58.7,9.3l-24.5-75.4l-0.1-0.2C342.9,135.6,370.9,131,400,131z"
   id="path1755" />
				<path
   class="st0"
   d="M341.4,580.3l-24.5,75.6c-27.1-8.8-52.4-21.8-74.9-38.2l46.7-64.3C304.5,565,322.3,574.1,341.4,580.3z"
   id="path1757" />
				<path
   class="st0"
   d="M316.8,144.3l24.5,75.4c-19.1,6.2-36.9,15.4-52.9,27l-46.6-64.2l-0.1-0.1l0,0c22.6-16.5,47.8-29.5,75-38.3      L316.8,144.3z"
   id="path1759" />
				<path
   class="st1"
   d="M288.6,553.4l-46.7,64.3c-22.8-16.6-42.9-36.7-59.5-59.5l64.3-46.7l0,0      C258.4,527.6,272.5,541.7,288.6,553.4z"
   id="path1761" />
				<path
   class="st3"
   d="M241.8,182.5l46.6,64.2c-16.1,11.7-30.2,25.9-41.9,42L182.2,242l0,0C198.8,219.2,218.9,199.1,241.8,182.5      L241.8,182.5z"
   id="path1763" />
				<path
   class="st0"
   d="M246.7,511.5L246.7,511.5l-64.3,46.7c-16.4-22.6-29.5-47.8-38.3-74.9l75.6-24.6      C225.9,477.8,235.1,495.6,246.7,511.5z"
   id="path1765" />
				<path
   class="st1"
   d="M182.2,242l64.2,46.7c-11.6,15.9-20.7,33.7-26.9,52.9L144,317l0,0C152.8,289.9,165.8,264.6,182.2,242      L182.2,242z"
   id="path1767" />
				<path
   class="st1"
   d="M219.7,458.7l-75.6,24.6c-3.9-12-7-24.3-9.2-36.9l81.2-0.5v0.6C217.2,450.6,218.4,454.7,219.7,458.7z"
   id="path1769" />
				<path
   class="st0"
   d="M144,317l75.5,24.5c-1.2,3.7-2.3,7.4-3.2,11.1h-81.2C137.3,340.5,140.3,328.6,144,317L144,317z"
   id="path1771" />
			</g>
			<g
   id="g1821">
				<circle
   class="st4"
   cx="400"
   cy="400"
   r="299.6"
   id="circle1775" />
				<path
   class="st5"
   d="M135.1,352.7c2.2-12.2,5.1-24.1,8.9-35.7c8.8-27.1,21.8-52.4,38.2-75c16.6-22.8,36.7-42.9,59.5-59.6l0,0      c22.6-16.5,47.8-29.5,75-38.3c26.2-8.5,54.2-13.1,83.3-13.1c29,0,57,4.6,83.1,13.1c27.2,8.8,52.4,21.8,75,38.3      c22.8,16.6,42.9,36.7,59.6,59.6c16.4,22.6,29.5,47.9,38.3,75c3.8,11.6,6.8,23.5,8.9,35.8"
   id="path1777" />
				<path
   class="st5"
   d="M665.6,443c-2.2,13.8-5.5,27.3-9.7,40.3c-8.8,27.1-21.9,52.4-38.3,74.9C601,581,580.9,601.1,558,617.7      c-22.6,16.4-47.8,29.4-75,38.2c-26.1,8.5-54,13.1-83,13.1s-57-4.6-83.2-13.1c-27.1-8.8-52.4-21.8-74.9-38.2      c-22.8-16.6-42.9-36.7-59.5-59.5c-16.4-22.6-29.5-47.8-38.3-74.9c-3.9-12-7-24.3-9.2-36.9"
   id="path1779" />
				<path
   class="st5"
   d="M216.4,352.7c1-3.8,2-7.5,3.2-11.1c6.2-19.1,15.3-36.9,26.9-52.9c11.7-16.1,25.8-30.3,41.9-42      c15.9-11.6,33.7-20.8,52.9-27c18.5-6,38.2-9.3,58.7-9.3c20.4,0,40.1,3.2,58.6,9.2c19.1,6.2,37,15.4,52.9,27      c16.1,11.7,30.3,25.9,42,42c11.6,15.9,20.8,33.8,27,52.9c1.2,3.7,2.3,7.4,3.2,11.2"
   id="path1781" />
				<path
   class="st5"
   d="M583.9,446.4c-1,4.2-2.2,8.3-3.6,12.4c-6.2,19.1-15.4,36.9-27,52.8c-11.7,16.1-25.9,30.2-42,41.9      c-15.9,11.6-33.7,20.7-52.8,26.9c-18.4,6-38.1,9.2-58.5,9.2c-20.5,0-40.2-3.2-58.6-9.2c-19.1-6.2-36.9-15.4-52.8-26.9      c-16.1-11.7-30.2-25.8-41.9-41.9c-11.6-15.9-20.8-33.7-27-52.8c-1.3-4-2.5-8.1-3.6-12.3"
   id="path1783" />
				<line
   class="st5"
   x1="400"
   y1="589.6"
   x2="400"
   y2="669"
   id="line1785" />
				<line
   class="st5"
   x1="400"
   y1="131"
   x2="400"
   y2="210.4"
   id="line1787" />
				<polyline
   class="st5"
   points="458.5,580.4 483,656 483,656     "
   id="polyline1789" />
				<line
   class="st5"
   x1="316.8"
   y1="144.3"
   x2="341.3"
   y2="219.7"
   id="line1791" />
				<polyline
   class="st5"
   points="511.3,553.5 511.3,553.5 558,617.8 558,617.8     "
   id="polyline1793" />
				<line
   class="st5"
   x1="241.8"
   y1="182.5"
   x2="288.4"
   y2="246.7"
   id="line1795" />
				<line
   class="st5"
   x1="553.3"
   y1="511.6"
   x2="617.5"
   y2="558.3"
   id="line1797" />
				<polyline
   class="st5"
   points="182.2,242 246.5,288.7 246.5,288.7     "
   id="polyline1799" />
				<line
   class="st5"
   x1="580.3"
   y1="458.8"
   x2="655.8"
   y2="483.3"
   id="line1801" />
				<polyline
   class="st5"
   points="144,317 219.6,341.6 219.6,341.6     "
   id="polyline1803" />
				<line
   class="st5"
   x1="580.4"
   y1="341.5"
   x2="655.8"
   y2="317"
   id="line1805" />
				<polyline
   class="st5"
   points="144,483.3 144.1,483.3 219.7,458.7     "
   id="polyline1807" />
				<line
   class="st5"
   x1="553.4"
   y1="288.6"
   x2="617.5"
   y2="242"
   id="line1809" />
				<polyline
   class="st5"
   points="182.2,558.3 182.4,558.2 246.7,511.5     "
   id="polyline1811" />
				<line
   class="st5"
   x1="511.5"
   y1="246.6"
   x2="558"
   y2="182.5"
   id="line1813" />
				<polyline
   class="st5"
   points="241.8,617.8 241.9,617.7 288.6,553.4 288.6,553.4     "
   id="polyline1815" />
				<line
   class="st5"
   x1="458.6"
   y1="219.6"
   x2="483"
   y2="144.3"
   id="line1817" />
				<polyline
   class="st5"
   points="316.8,656 316.8,655.9 341.4,580.3     "
   id="polyline1819" />
			</g>
		</g>
	</g>
</g>
<g
   id="Layer_5">
	<polygon
   class="st6"
   points="500.7,502.5 399.9,413.2 297.5,500.7 386.8,399.9 299.3,297.5 400.1,386.8 502.5,299.3 413.2,400.1     "
   id="polygon1826" />
	<polygon
   class="st7"
   points="293.9,290.7 400.6,389.6 507.6,290.4 408.5,397.4 507.3,504.1 400.6,405.2 293.6,504.4 392.8,397.4     "
   id="polygon1828" />
	<polyline
   class="st8"
   points="408.6,398.4 507.5,505.1 400.8,406.2 293.8,505.4 393,398.4  "
   id="polyline1830" />
	<circle
   class="st9"
   cx="299.6"
   cy="297.5"
   r="13.4"
   id="circle1832" />
	
		<ellipse
   transform="matrix(0.1602 -0.9871 0.9871 0.1602 126.7412 747.5663)"
   class="st9"
   cx="502.7"
   cy="299.3"
   rx="13.4"
   ry="13.4"
   id="ellipse1834" />
	<path
   class="st10"
   d="M302.4,290.8c2.7,2.7,3.1,6.8,0.8,9s-6.3,1.9-9-0.8s-6-9.7-3.7-11.9S299.7,288.1,302.4,290.8z"
   id="path1836" />
	<path
   class="st10"
   d="M507.2,299.1c-2.7,2.7-6.8,3.1-9,0.8s-1.9-6.3,0.8-9s9.7-6,11.9-3.7C513.1,289.4,509.9,296.4,507.2,299.1z"
   id="path1838" />
	<rect
   x="321.8"
   y="357.2"
   class="st11"
   width="156.6"
   height="80.3"
   id="rect1840" />
</g>
<g
   id="Layer_4">
	<line
   class="st5"
   x1="643.8"
   y1="399.5"
   x2="699.6"
   y2="399.5"
   id="line1843" />
	<line
   class="st5"
   x1="100.4"
   y1="400"
   x2="159.8"
   y2="399.5"
   id="line1845" />
	<line
   class="st5"
   x1="643.8"
   y1="376.1"
   x2="699.6"
   y2="376.1"
   id="line1847" />
	<line
   class="st5"
   x1="102.7"
   y1="376.1"
   x2="159.8"
   y2="376.1"
   id="line1849" />
	<polyline
   class="st5"
   points="102.5,352.7 135.1,352.7 216.4,352.7 447.3,352.7 583.6,352.7 574.4,352.7 696.4,352.7  "
   id="polyline1851" />
	<polyline
   class="st12"
   points="104,446.4 135,446.4 216.4,446.4 696,446.4  "
   id="polyline1853" />
	<line
   class="st5"
   x1="643.8"
   y1="423"
   x2="699"
   y2="423"
   id="line1855" />
	<line
   class="st5"
   x1="102.7"
   y1="423"
   x2="159.8"
   y2="423"
   id="line1857" />
</g>
<g
   id="Layer_3">
	<g
   id="g1901">
		<g
   id="XMLID_00000000207514644004735790000002521759607068908956_">
			<g
   id="g1876">
				<polygon
   class="st2"
   points="629.2,501.4 613.2,531.8 606.3,528.2 608.7,523.6 585.3,511.4 582.9,515.9 576,512.3 592,481.9       603.7,488 599.9,495.4 595.4,493 590.3,502.7 597.7,506.6 604.3,493.9 611.7,497.8 605,510.5 612.9,514.6 618,504.9       613.6,502.6 617.4,495.2     "
   id="polygon1860" />
				<polygon
   class="st2"
   points="578,564.7 583.5,570.2 568,585.6 562.5,580 566.7,575.8 548.3,557.2 544.3,561.2 549.4,566.4       543.5,572.2 532.7,561.3 559.6,534.7 570.4,545.7 564.5,551.5 559.4,546.3 555.4,550.2 573.8,568.8     "
   id="polygon1862" />
				<polygon
   class="st2"
   points="518.4,611.6 521.9,618.6 502.4,628.4 498.9,621.4 504.2,618.8 492.5,595.4 487.4,597.9       490.7,604.4 483.3,608.1 476.4,594.4 510.2,577.5 517.1,591.2 509.7,594.9 506.4,588.4 501.4,590.9 513.1,614.3     "
   id="polygon1864" />
				<polygon
   class="st2"
   points="451.4,631.7 453.4,644.8 419.4,649.9 418.2,642.2 423.3,641.4 419.4,615.3 414.3,616 413.2,608.3       447.2,603.3 449.1,616.4 440.9,617.6 440.2,612.6 429.3,614.2 430.5,622.4 444.7,620.3 445.9,628.6 431.8,630.7 433.1,639.5       444,637.9 443.2,632.9     "
   id="polygon1866" />
				<polygon
   class="st2"
   points="380,633.2 377.4,649.6 343.8,644.2 345.1,636.5 350.2,637.4 354.3,611.3 349.2,610.5 350.4,602.8       371.1,606 369.8,613.8 364.1,612.8 360.1,638.5 370.5,640.1 371.8,631.9     "
   id="polygon1868" />
				<path
   class="st2"
   d="M323.9,594.8l-3.6,6.9l-4.5-2.3l-11.9,23c-2.5,4.9-6.2,6.1-11.1,3.6l-13.8-7c-4.9-2.5-6.1-6.3-3.6-11.2      l11.8-23.1l-4.5-2.3l3.6-6.9l17.3,8.9l-3.6,6.9l-3.9-2L285,610.9c-0.4,0.7-0.2,1.2,0.5,1.5l8.8,4.5c0.7,0.4,1.2,0.2,1.5-0.5      l11.1-21.6l-3.9-2l3.6-6.9L323.9,594.8z"
   id="path1870" />
				<path
   class="st2"
   d="M257.9,552.1c4,4,3.9,7.7-0.1,11.7l-18.1,17.9c-4,3.9-7.7,4-11.7,0l-11.7-11.8c-3.9-4-3.9-7.8,0-11.7      l18.1-17.9c4-4,7.8-3.9,11.7,0.1L257.9,552.1z M249.8,557.8c0.6-0.6,0.6-1,0-1.6l-7.7-7.8c-0.6-0.6-1-0.6-1.6,0l-15.9,15.8      c-0.6,0.6-0.6,1,0,1.6l7.7,7.8c0.6,0.6,1,0.6,1.6,0L249.8,557.8z"
   id="path1872" />
				<path
   class="st2"
   d="M218.6,502.2c2.6,5,1.4,8.6-3.6,11.1l-7.5,3.8c-4.3,2.2-7.5,1.7-9.9-1.7l-6.4,8.1l2.3,4.6l-7,3.5l-5.4-10.6      l10.9-13.9l-2.6-5l-7.3,3.7l2.3,4.5l-6.9,3.5l-9.1-18l6.9-3.5l2.3,4.6l23.5-12l-2.3-4.6l7-3.5L218.6,502.2z M209.4,505      c0.8-0.4,0.9-0.7,0.5-1.5l-4.7-9.3l-8.6,4.4l4.7,9.3c0.4,0.8,0.7,0.9,1.5,0.5L209.4,505z"
   id="path1874" />
			</g>
			<g
   id="g1898">
				<path
   class="st13"
   d="M186.5,531.8l-5.4-10.6l10.9-13.9l-2.6-5l-7.3,3.7l2.3,4.5l-6.9,3.5l-9.1-18l6.9-3.5l2.3,4.6l23.5-12      l-2.3-4.6l7-3.5l12.8,25.2c2.6,5,1.4,8.6-3.6,11.1l-7.5,3.8c-4.3,2.2-7.5,1.7-9.9-1.7l-6.4,8.1l2.3,4.6L186.5,531.8z"
   id="path1878" />
				<path
   class="st13"
   d="M201.3,507.9c0.4,0.8,0.7,0.9,1.5,0.5l6.5-3.3c0.8-0.4,0.9-0.7,0.5-1.5l-4.7-9.3l-8.6,4.4L201.3,507.9z"
   id="path1880" />
				<path
   class="st13"
   d="M216.4,569.9c-3.9-4-3.9-7.8,0-11.7l18.1-17.9c4-4,7.8-3.9,11.7,0.1l11.7,11.8c4,4,3.9,7.7-0.1,11.7      l-18.1,17.9c-4,3.9-7.7,4-11.7,0L216.4,569.9z"
   id="path1882" />
				<path
   class="st13"
   d="M224.5,564.2c-0.6,0.6-0.6,1,0,1.6l7.7,7.8c0.6,0.6,1,0.6,1.6,0l15.9-15.8c0.6-0.6,0.6-1,0-1.6l-7.7-7.8      c-0.6-0.6-1-0.6-1.6,0L224.5,564.2z"
   id="path1884" />
				<path
   class="st13"
   d="M315.8,599.4l-11.9,23c-2.5,4.9-6.2,6.1-11.1,3.6l-13.8-7c-4.9-2.5-6.1-6.3-3.6-11.2l11.8-23.1l-4.5-2.3      l3.6-6.9l17.3,8.9l-3.6,6.9l-3.9-2L285,610.9c-0.4,0.7-0.2,1.2,0.5,1.5l8.8,4.5c0.7,0.4,1.2,0.2,1.5-0.5l11.1-21.6l-3.9-2      l3.6-6.9l17.3,8.9l-3.6,6.9L315.8,599.4z"
   id="path1886" />
				<polygon
   class="st13"
   points="343.8,644.2 345.1,636.5 350.2,637.4 354.3,611.3 349.2,610.5 350.4,602.8 371.1,606 369.8,613.8       364.1,612.8 360.1,638.5 370.5,640.1 371.8,631.9 380,633.2 377.4,649.6     "
   id="polygon1888" />
				<polygon
   class="st13"
   points="449.1,616.4 440.9,617.6 440.2,612.6 429.3,614.2 430.5,622.4 444.7,620.3 445.9,628.6       431.8,630.7 433.1,639.5 444,637.9 443.2,632.9 451.4,631.7 453.4,644.8 419.4,649.9 418.2,642.2 423.3,641.4 419.4,615.3       414.3,616 413.2,608.3 447.2,603.3     "
   id="polygon1890" />
				<polygon
   class="st13"
   points="506.4,588.4 501.4,590.9 513.1,614.3 518.4,611.6 521.9,618.6 502.4,628.4 498.9,621.4       504.2,618.8 492.5,595.4 487.4,597.9 490.7,604.4 483.3,608.1 476.4,594.4 510.2,577.5 517.1,591.2 509.7,594.9     "
   id="polygon1892" />
				<polygon
   class="st13"
   points="559.4,546.3 555.4,550.2 573.8,568.8 578,564.7 583.5,570.2 568,585.6 562.5,580 566.7,575.8       548.3,557.2 544.3,561.2 549.4,566.4 543.5,572.2 532.7,561.3 559.6,534.7 570.4,545.7 564.5,551.5     "
   id="polygon1894" />
				<polygon
   class="st13"
   points="603.7,488 599.9,495.4 595.4,493 590.3,502.7 597.7,506.6 604.3,493.9 611.7,497.8 605,510.5       612.9,514.6 618,504.9 613.6,502.6 617.4,495.2 629.2,501.4 613.2,531.8 606.3,528.2 608.7,523.6 585.3,511.4 582.9,515.9       576,512.3 592,481.9     "
   id="polygon1896" />
			</g>
		</g>
	</g>
	<g
   id="g1917">
		<path
   class="st14"
   d="M189.8,381.8h-7v-9.4h36.6c7.6,0,11.2,3.6,11.2,15c0,7-1.4,10.2-5,12.4c4,1.9,5.7,5,5.7,13    c0,12-3.6,15.6-11.2,15.6h-37.3V419h7L189.8,381.8L189.8,381.8z M216.7,394.5c2,0,2.4-0.5,2.4-6s-0.4-5.9-2.4-5.9h-15.4v11.9    H216.7z M217.3,418.1c2,0,2.4-0.4,2.4-7s-0.4-6.9-2.4-6.9h-16V418h16V418.1z"
   id="path1903" />
		<path
   class="st14"
   d="M263.2,381.8v37.1h7.4v9.4h-26.2v-9.4h7.4v-37.1h-7.4v-9.4h26.2v9.4H263.2z"
   id="path1905" />
		<path
   class="st14"
   d="M315.5,384.5c0-1.2-0.4-1.6-1.6-1.6H298c-1.2,0-1.6,0.4-1.6,1.6v31.7c0,1.2,0.4,1.6,1.6,1.6h15.9    c1.2,0,1.6-0.4,1.6-1.6v-9.1h-11V397H327v20.2c0,7.6-3.6,11.2-11.2,11.2H296c-7.6,0-11.2-3.6-11.2-11.2v-33.6    c0-7.6,3.6-11.2,11.2-11.2h19.8c7.6,0,11.2,3.6,11.2,11.2v7.4h-11.5V384.5z"
   id="path1907" />
		<path
   class="st14"
   d="M376.4,381.8h-7v-9.4H406c7.6,0,11.2,3.6,11.2,15c0,7-1.4,10.2-5,12.4c4,1.9,5.7,5,5.7,13    c0,12-3.6,15.6-11.2,15.6h-37.3V419h7L376.4,381.8L376.4,381.8z M403.3,394.5c2,0,2.4-0.5,2.4-6s-0.4-5.9-2.4-5.9H388v11.9H403.3z     M404,418.1c2,0,2.4-0.4,2.4-7s-0.4-6.9-2.4-6.9h-16V418h16V418.1z"
   id="path1909" />
		<path
   class="st14"
   d="M488.4,418.9v9.4h-24.2v-9.4h5.9l-2.3-7.4h-18.7l-2.3,7.4h5.8v9.4h-23.7v-9.4h6.1l12.7-37.1h-6.4v-9.4h25.1    l15.9,46.6h6.1V418.9z M464.8,402l-6.3-19.7l-6.3,19.7H464.8z"
   id="path1911" />
		<path
   class="st14"
   d="M557.2,381.8h-6.7v46.6h-11.9l-21-38.5v29h7.7v9.4h-25.8v-9.4h7v-37.1h-7v-9.4h19.7l20.3,37.2v-27.8h-7.7    v-9.4h25.4V381.8z"
   id="path1913" />
		<path
   class="st14"
   d="M569.2,418.9h7v-37.1h-7v-9.4h37.7c7.6,0,11.2,3.6,11.2,11.2v33.6c0,7.6-3.6,11.2-11.2,11.2h-37.7V418.9z     M605,417.8c1.2,0,1.6-0.4,1.6-1.6v-31.7c0-1.2-0.4-1.6-1.6-1.6h-17.2v34.9L605,417.8L605,417.8z"
   id="path1915" />
	</g>
</g>
</svg>
